<svg id="Banner-2" data-name="Banner" xmlns="http://www.w3.org/2000/svg" xmlns:xlink="http://www.w3.org/1999/xlink" width="686" height="219" viewBox="0 0 686 219">
  <defs>
    <clipPath id="clip-path">
      <rect id="Banner" width="686" height="219" rx="21" fill="#725dff"/>
    </clipPath>
    <clipPath id="clip-path-2">
      <rect id="OBJECTS" width="334" height="222" fill="none"/>
    </clipPath>
  </defs>
  <rect id="Banner-3" data-name="Banner" width="686" height="219" rx="21" fill="#725dff"/>
  <g id="Banner-4" data-name="Banner" clip-path="url(#clip-path)">
    <g id="OBJECTS-2" data-name="OBJECTS" transform="translate(325 21.104)">
      <rect id="OBJECTS-3" data-name="OBJECTS" width="334" height="222" fill="none"/>
      <g id="OBJECTS-4" data-name="OBJECTS" clip-path="url(#clip-path-2)">
        <path id="Vector" d="M44.766,78.787H14.234L0,0H30.532Z" transform="translate(226.055 117.405)" fill="#8577e4"/>
        <path id="Vector-2" data-name="Vector" d="M0,10.534V5.617L36.434,0H66.966L91.352,5.617v4.918Z" transform="translate(202.762 190.576)" fill="#8577e4"/>
        <path id="Vector-3" data-name="Vector" d="M44.76,78.787H14.228L0,0H30.532Z" transform="translate(221.175 117.405)"/>
        <path id="Vector-4" data-name="Vector" d="M146.974,103.562H5.7A5.69,5.69,0,0,1,.1,96.824L17.292,6.162A7.58,7.58,0,0,1,24.743,0H166.017a5.69,5.69,0,0,1,5.6,6.739L154.425,97.4A7.58,7.58,0,0,1,146.974,103.562Z" transform="translate(162.28 53.237)"/>
        <path id="Vector-5" data-name="Vector" d="M146.974,103.562H5.7A5.69,5.69,0,0,1,.1,96.824L17.292,6.162A7.58,7.58,0,0,1,24.743,0H166.017a5.69,5.69,0,0,1,5.6,6.739L154.425,97.4A7.58,7.58,0,0,1,146.974,103.562Z" transform="translate(158.474 49.319)" fill="#8577e4"/>
        <path id="Vector-6" data-name="Vector" d="M1.3,94.8a1.266,1.266,0,0,1-1-.474,1.261,1.261,0,0,1-.276-1.071L17.217,2.6A3.2,3.2,0,0,1,20.354,0H161.628a1.292,1.292,0,0,1,1.009.474,1.261,1.261,0,0,1,.276,1.071L145.723,92.214a3.2,3.2,0,0,1-3.137,2.6H1.311Z" transform="translate(162.869 53.698)" fill="none" stroke="#000" stroke-miterlimit="1" stroke-width="1"/>
        <path id="Vector-7" data-name="Vector" d="M0,10.534V5.617L36.434,0H66.966L91.352,5.617v4.918Z" transform="translate(197.882 190.576)"/>
        <path id="Vector-8" data-name="Vector" d="M0,0H17.969" transform="translate(235.518 190.576)" fill="none" stroke="#fff" stroke-linecap="round" stroke-linejoin="round" stroke-miterlimit="1" stroke-width="1"/>
        <path id="Vector-9" data-name="Vector" d="M4.636,1.945A2.156,2.156,0,0,1,2.318,3.89,2.156,2.156,0,0,1,0,1.945,2.156,2.156,0,0,1,2.318,0,2.156,2.156,0,0,1,4.636,1.945Z" transform="matrix(0.737, -0.675, 0.675, 0.737, 298.68, 59.532)" fill="#fff"/>
        <path id="Vector-10" data-name="Vector" d="M4.636,1.945A2.156,2.156,0,0,1,2.318,3.89,2.156,2.156,0,0,1,0,1.945,2.156,2.156,0,0,1,2.318,0,2.156,2.156,0,0,1,4.636,1.945Z" transform="matrix(0.737, -0.675, 0.675, 0.737, 307.001, 59.532)" fill="#fff"/>
        <path id="Vector-11" data-name="Vector" d="M4.636,1.945A2.156,2.156,0,0,1,2.318,3.89,2.156,2.156,0,0,1,0,1.945,2.156,2.156,0,0,1,2.318,0,2.156,2.156,0,0,1,4.636,1.945Z" transform="matrix(0.737, -0.675, 0.675, 0.737, 315.321, 59.535)" fill="#fff"/>
        <path id="Vector-12" data-name="Vector" d="M24.771,0,0,36.111S3.825,48.492,11.039,48c12.042-.834,31.554-31.27,31.554-31.27" transform="translate(177.013 87.854)" fill="#ffd9d2"/>
        <path id="Vector-13" data-name="Vector" d="M28.391,25.6s-.174-4.039-.174-9.194c0-2.712-1.9-5.347-4.147-9.425-1.112-2.558-3.845-2.231-4.2.68a5.274,5.274,0,0,0,.122,1.385c-1.832-2.866-3.767-5.694-4.539-6.764A2.847,2.847,0,0,0,11.733,1.3c-.084-.109-.154-.205-.225-.289C9.92-.981,6.686.353,7.2,1.757,5.195-.128,2.436,1.3,3.015,2.578c.019.045.064.122.116.218C1.491,1.751-.56,3.11.141,4.476c.418.814,4.327,7.9,4.327,7.9s3.2,6.142,4.275,8.322c1.234,2.084,3.87,5.771,6,6.905,2.012,11.958,10.608,49.043,10.608,49.043L43.609,61.758S32.7,37.887,28.4,25.6Z" transform="translate(151.67 47.318)" fill="#ffd9d2"/>
        <path id="Vector-14" data-name="Vector" d="M0,0,5,9.053" transform="translate(155.977 51.441)" fill="none" stroke="#000" stroke-linecap="round" stroke-linejoin="round" stroke-miterlimit="1" stroke-width="0.5"/>
        <path id="Vector-15" data-name="Vector" d="M0,0,5,9.053" transform="translate(159.468 50.108)" fill="none" stroke="#000" stroke-linecap="round" stroke-linejoin="round" stroke-miterlimit="1" stroke-width="0.5"/>
        <path id="Vector-16" data-name="Vector" d="M0,0,5,9.053" transform="translate(163.287 49.069)" fill="none" stroke="#000" stroke-linecap="round" stroke-linejoin="round" stroke-miterlimit="1" stroke-width="0.5"/>
        <path id="Vector-17" data-name="Vector" d="M0,0A20.468,20.468,0,0,0,2.012,4.257" transform="translate(171.973 56.936)" fill="none" stroke="#000" stroke-linecap="round" stroke-linejoin="round" stroke-miterlimit="1" stroke-width="0.5"/>
        <path id="Vector-18" data-name="Vector" d="M0,33.521S11.643,46,20.515,53.814l14.2-19.562L25.543,0s-2.79,1.609-7.033,7.418C14.9,12.362,8.994,20.954,0,33.514Z" transform="translate(193.086 66.24)" fill="#fff"/>
        <path id="Vector-19" data-name="Vector" d="M71.393,45.4C69.11,53.019,66.378,60.367,64.52,65.6a25.871,25.871,0,0,0-1.177,6.7,64.471,64.471,0,0,0,.765,16.581H.942a31.421,31.421,0,0,0,.855-7.8C.068,38.2-2.022,18.947,4.067,8.624,7.738,2.4,28.71,0,28.71,0L49.476.192S73.727,6.027,75.45,19.87C76.285,26.6,74.17,36.194,71.393,45.4Z" transform="translate(213.071 59.296)" fill="#fff"/>
        <path id="Vector-20" data-name="Vector" d="M0,0,.309,37.656H6.571a25.922,25.922,0,0,1,1.177-6.7c1.858-5.238,4.59-12.586,6.873-20.2L0,.006Z" transform="translate(269.85 93.945)"/>
        <path id="Vector-21" data-name="Vector" d="M1.137,0S-2.277,12.9,2.725,15.33c4.063,1.981,4.423-3.8,4.423-3.8l.964-6.29" transform="translate(230.955 13.298)" fill="#e9a134"/>
        <path id="Vector-22" data-name="Vector" d="M22.775,23.031S19.38,31.783,6.5,30.539c-11.212-1.084-4.507-7.688-4.507-7.688s.585-1.763,1.3-4.1c.694-2.289,1.511-5.1,2.019-7.316L9.794,7.765,19.3,0S18.075,16.876,22.775,23.031Z" transform="translate(239.785 36.451)" fill="#ffd9d2"/>
        <path id="Vector-23" data-name="Vector" d="M12.325.083S8.441,8.342,0,10.983c.694-2.289,1.511-5.1,2.019-7.316L6.506,0Z" transform="translate(243.066 44.222)"/>
        <path id="Vector-24" data-name="Vector" d="M4.122,11.452S-6.447,36.945,6.263,41.4c0,0,8.538,3.187,17.455-4.039a25.237,25.237,0,0,0,6.2-7.617c2.565-4.706,6.751-13.535,5.87-19.716-1.254-8.8-26.4-17.908-31.663,1.417Z" transform="translate(230.753 8.957)" fill="#ffd9d2"/>
        <path id="Vector-25" data-name="Vector" d="M40.852,30.176s-.013.019-.019.019c-.026,3.732-1.794,7.79-5.182,9.284-.881,3.5-4.4,6.425-4.4,6.425-.013-1.975-.283-4.841-.219-8.1,3.182-2.879,5.137-8.124,1.652-10-1.2-.641-4.031-1.052-6.037,2.2a5.539,5.539,0,0,1-3.2-4.956c-4.905.68-21.75,1.834-23.331-13.4-.251-2.443-.4-8.188,2.488-9.682C4.726.887,8.867,1.086,12.8,4.863,10.545-1.479,22.04-1.665,29.729,4.58c.952-4.578,9.515,1,10.685,7.213,9.432,2.045,4.59,15.965.431,18.376Z" transform="translate(227.79 -0.009)" fill="#e9a134"/>
        <path id="Vector-26" data-name="Vector" d="M50.115,3.257S12.055-9.169,0,14.522L21.03,75.568C33.084,51.877,71.145,64.3,71.145,64.3Z" transform="translate(185.603 89.765)" fill="#fff"/>
        <path id="Vector-27" data-name="Vector" d="M37.424.878S15.919-4.783,0,12.644L20.355,72.3s15-17.344,38.408-14.734Z" transform="translate(195.291 94.028)" fill="#e9a134"/>
        <path id="Vector-28" data-name="Vector" d="M72.435,0,49.7,8.117s3,16.235,5.156,27.474c-9.464-1.052-21.435-2.4-27.163-3.629A6.892,6.892,0,0,1,26.236,30.9c-2.122-3.135-4.578-4.495-7.008-7.624a1.9,1.9,0,0,0-3.5.987c-.116,2.828,1.909,4.963,2.893,6.3-2.861-.814-8.911-2.36-12.2-3.155-2.134-.519-3.883,1.109-3.485,2.443a4.328,4.328,0,0,0-.707,0c-2.25.237-2.424,2.1-2.109,2.706a2.826,2.826,0,0,0,1.093.763C0,33.6-.175,35.367.146,35.854s2.244,1.218,3.735,1.712A1.971,1.971,0,0,0,2.39,39.99c.534,1.128,8.9,3.757,10.833,4.27a40.666,40.666,0,0,0,12.26,1.43c19.551,5.565,34.537,8.56,40.825,9.188,6.731.673,11.09-2.09,12.074-6.655,1.472-6.8-5.96-48.21-5.96-48.21Z" transform="translate(224.308 92.573)" fill="#ffd9d2"/>
        <path id="Vector-29" data-name="Vector" d="M32.872,50.524c-9.952,2.084-22.328,2.892-27.485,3.148-1.588-9.566-2.9-18.229-3.87-24.781L0,0S21.345,6.322,23.73,11.124C27.947,19.607,31.464,40.99,32.872,50.524Z" transform="translate(267.208 60.892)" fill="#fff"/>
        <path id="Vector-30" data-name="Vector" d="M0,0,16.118,1.821" transform="translate(270.12 127.138)" fill="none" stroke="#000" stroke-linecap="round" stroke-linejoin="round" stroke-miterlimit="1" stroke-width="0.5"/>
        <path id="Vector-31" data-name="Vector" d="M9.994,4.529A5.007,5.007,0,1,1,4.542.022,5,5,0,0,1,9.994,4.529Z" transform="translate(228.289 25.856)" fill="none" stroke="#000" stroke-miterlimit="1" stroke-width="1"/>
        <path id="Vector-32" data-name="Vector" d="M9.994,4.529A5.007,5.007,0,1,1,4.542.022,5,5,0,0,1,9.994,4.529Z" transform="translate(240.653 27.882)" fill="none" stroke="#000" stroke-miterlimit="1" stroke-width="1"/>
        <path id="Vector-33" data-name="Vector" d="M0,0,2.482.417" transform="translate(238.219 31.764)" fill="none" stroke="#000" stroke-miterlimit="1" stroke-width="1"/>
        <path id="Vector-34" data-name="Vector" d="M2.828.034S.771-.485.109,2.528c-.437,2,.5,3.385,1.787,3.4" transform="translate(255.899 29.909)" fill="none" stroke="#000" stroke-linecap="round" stroke-miterlimit="1" stroke-width="0.5"/>
        <path id="Vector-35" data-name="Vector" d="M2.282,0A2.077,2.077,0,0,0,0,2.158" transform="translate(255.95 31.843)" fill="none" stroke="#000" stroke-linecap="round" stroke-miterlimit="1" stroke-width="0.5"/>
        <path id="Vector-36" data-name="Vector" d="M0,0,12.62,3.821" transform="translate(228.504 123.195)" fill="none" stroke="#000" stroke-linecap="round" stroke-linejoin="round" stroke-miterlimit="1" stroke-width="0.5"/>
        <path id="Vector-37" data-name="Vector" d="M0,0,13.791,4.174" transform="translate(226.588 126.33)" fill="none" stroke="#000" stroke-linecap="round" stroke-linejoin="round" stroke-miterlimit="1" stroke-width="0.5"/>
        <path id="Vector-38" data-name="Vector" d="M0,0,11.02,3.334" transform="translate(228.851 130.351)" fill="none" stroke="#000" stroke-linecap="round" stroke-linejoin="round" stroke-miterlimit="1" stroke-width="0.5"/>
        <path id="Vector-39" data-name="Vector" d="M22.6.006a18.539,18.539,0,0,1-6.77,5.367A28.257,28.257,0,0,1,8.751,7.585L6.662,10.951l-1-3.559C3.788,4.815,4.47.955,4.47.955L.786,3.911C-1.3,9.2,1.435,14.8,1.435,14.8l1.691-2.962L6.54,13.279s2.366-.289,3.755-.564l1.222,4.046S23.3,11.323,24.432,3.693L22.593,0Z" transform="translate(238.121 55.782)"/>
        <path id="Vector-40" data-name="Vector" d="M.348,24.926S-1.851,10.07,4.8,3.684c6.526-6.264,14.4-2.642,14.4-2.642" transform="translate(269.502 70.481)" fill="none" stroke="#000" stroke-miterlimit="1" stroke-width="0.5"/>
        <path id="Vector-41" data-name="Vector" d="M0,0H296.132" transform="translate(0 201.111)" fill="none" stroke="#000" stroke-miterlimit="1" stroke-width="1"/>
        <path id="Vector-42" data-name="Vector" d="M37.842,8.241c-2.224-5.662-10.351-10.765-21.7-6.88C-1.234,7.3.778,22.674,7.567,33.772c.051.083.1.16.154.237L0,52.527l20.927,6.437,3.806-12.272c5.407,1.552,14.723,2.815,16.671-6.046,2.784-12.657-3.562-32.411-3.562-32.411Z" transform="translate(74.514 76.862)" fill="#ffe7e8"/>
        <path id="Vector-43" data-name="Vector" d="M4.3,2.058A30.292,30.292,0,0,1,0,0S1.074,3.244,3.562,4.443Z" transform="translate(94.945 121.502)"/>
        <path id="Vector-44" data-name="Vector" d="M36.368,24.569s7.458,2.994,12.022-7.662S45.941,4.141,40.046,5.7c0,0,1.89-4.219-1.222-4.995s-5.9,4.661-5.9,4.661S33.591-.521,28.139.037,17.563,8.693,17.563,8.693,6.145,6.8.867,17.849c-4.95,10.381,12.923,33.11,12.923,33.11,3.3,1.122,9.663.853,12.235-.564l2.1-15.888s10.473,2.276,8.249-9.938Z" transform="translate(65.971 65.863)"/>
        <path id="Vector-45" data-name="Vector" d="M16.8,9.734c0,5.376-3.762,9.734-8.4,9.734S0,15.11,0,9.734,3.762,0,8.4,0,16.8,4.358,16.8,9.734Z" transform="translate(86.094 93.314) rotate(-11.919)" fill="#8577e4"/>
        <path id="Vector-46" data-name="Vector" d="M16.8,9.734c0,5.376-3.762,9.734-8.4,9.734S0,15.11,0,9.734,3.762,0,8.4,0,16.8,4.358,16.8,9.734Z" transform="translate(88.95 92.714) rotate(-11.919)" fill="#8577e4"/>
        <path id="Vector-47" data-name="Vector" d="M17.944,20.351S13.488,5.155,6.037,0L0,2.116s8.056,4.873,11.932,19.9Z" transform="translate(78.963 72.517)" fill="#8577e4"/>
        <path id="Vector-48" data-name="Vector" d="M16.8,9.734c0,5.376-3.762,9.734-8.4,9.734S0,15.11,0,9.734,3.762,0,8.4,0,16.8,4.358,16.8,9.734Z" transform="translate(88.95 92.714) rotate(-11.919)" fill="none" stroke="#000" stroke-linecap="round" stroke-linejoin="round" stroke-miterlimit="1" stroke-width="0.4"/>
        <path id="Vector-49" data-name="Vector" d="M105.284,41.545S94.971,17.321,92.265,13.8C89.018,9.582,73.626,2.4,67.995.728A171.319,171.319,0,0,0,44.837.157,118.2,118.2,0,0,0,24.476,7.3C8.564,15.09,0,96.474,0,96.474H81.084s1.774-30.007,3.266-46.318c7.5-2.988,11.515-4.655,20.933-8.617Z" transform="translate(30.423 125.526)" fill="#fec297"/>
        <path id="Vector-50" data-name="Vector" d="M0,.258S20.773-1.216,49.041,2.881" transform="translate(50.205 139.165)" fill="none" stroke="#000" stroke-linecap="round" stroke-linejoin="round" stroke-miterlimit="1" stroke-width="0.5"/>
        <path id="Vector-51" data-name="Vector" d="M12.826,30.5l-.071,2.52a.428.428,0,0,1-.752.263l-1.62-1.936L.071,1.712A1.293,1.293,0,0,1,2.514.866Z" transform="translate(176.615 165.679)"/>
        <path id="Vector-52" data-name="Vector" d="M71.138,19.011c-4.372,1.43-9.451,3.065-9.451,3.065l-31.451-7.97L23.28,0,0,9.592,8.724,26.1a13.836,13.836,0,0,0,12.235,7.361H86.388c7.162,0,4.6-4.136,4.6-4.136s-9.02-5.995-14.163-9.5a6.529,6.529,0,0,0-5.7-.808Z" transform="translate(111.481 167.462)" fill="#ffe7e8"/>
        <path id="Vector-53" data-name="Vector" d="M0,0H91.6" transform="translate(124.005 201.111)" fill="none" stroke="#000" stroke-miterlimit="1" stroke-width="1"/>
        <path id="Vector-54" data-name="Vector" d="M7.458,16.241,0,0,12.53,36.682l1.35-16.741L11.058,14.6Z" transform="translate(100.436 162.454)"/>
        <path id="Vector-55" data-name="Vector" d="M75.312,56.507,67.636,19.312A24.237,24.237,0,0,0,43.88,0H16.074A16.037,16.037,0,0,0,.335,19.254L8.025,56.507" transform="translate(11.417 165.493)"/>
        <path id="Vector-56" data-name="Vector" d="M48.411,51.98,41.481,18.408A23.1,23.1,0,0,0,18.837,0H0" transform="translate(33.817 168.148)" fill="none" stroke="#fff" stroke-linecap="round" stroke-miterlimit="1" stroke-width="1"/>
      </g>
    </g>
    <text id="解锁高级访问_权限" data-name="解锁高级访问 权限" transform="translate(44.605 39.5)" fill="#fff" font-size="36" font-family="YuGothicUI-Regular, Yu Gothic UI"><tspan x="0" y="39">挑</tspan><tspan y="39" font-family="MicrosoftJhengHeiUIRegular, Microsoft JhengHei UI">战</tspan><tspan y="39">网</tspan><tspan y="39" font-family="SegoeUI, Segoe UI">2025</tspan><tspan y="39">年</tspan><tspan y="39" font-family="SegoeUI, Segoe UI"></tspan><tspan x="0" y="76.607">招新控制面板</tspan></text>
    <text id="让知识世界触手可及_" data-name="让知识世界触手可及！" transform="translate(28 183.5)" fill="#fff" font-size="35" font-family="YuGothicUI-Regular, Yu Gothic UI" opacity="0.5"><tspan x="0" y="0">面</tspan><tspan y="0" font-family="MicrosoftJhengHeiUIRegular, Microsoft JhengHei UI">试</tspan><tspan y="0">信息</tspan><tspan y="0" font-family="MicrosoftJhengHeiUIRegular, Microsoft JhengHei UI">筛选</tspan><tspan y="0">与修改</tspan></text>
  </g>
</svg>
