<svg id="Icon-2" data-name="Icon" xmlns="http://www.w3.org/2000/svg" xmlns:xlink="http://www.w3.org/1999/xlink" width="52" height="56" viewBox="0 0 52 56">
  <defs>
    <clipPath id="clip-path">
      <rect id="Icon" width="52" height="56" rx="26" fill="#f1efff"/>
    </clipPath>
    <clipPath id="clip-path-2">
      <rect id="Outline_School_Notebook" data-name="Outline / School / Notebook" width="24" height="25.846" fill="none"/>
    </clipPath>
  </defs>
  <rect id="Icon-3" data-name="Icon" width="52" height="56" rx="26" fill="#f1efff"/>
  <g id="Icon-4" data-name="Icon" clip-path="url(#clip-path)">
    <g id="Outline_School_Notebook-2" data-name="Outline / School / Notebook" transform="translate(14 14)">
      <rect id="Outline_School_Notebook-3" data-name="Outline / School / Notebook" width="24" height="25.846" fill="none"/>
      <g id="Outline_School_Notebook-4" data-name="Outline / School / Notebook" clip-path="url(#clip-path-2)">
        <path id="Vector" d="M10.75,20.416a3.983,3.983,0,0,1-1.98-.531,16.143,16.143,0,0,0-3.211-1.478,15.24,15.24,0,0,0-2.84-.417A3,3,0,0,1,0,14.944v-12A2.761,2.761,0,0,1,2.614.058c.054,0,.11,0,.165.005a15.906,15.906,0,0,1,3.164.47A16.446,16.446,0,0,1,9.382,2.1a2.581,2.581,0,0,0,1.275.337,2.629,2.629,0,0,0,1.391-.4A14.227,14.227,0,0,1,15.034.541,14.547,14.547,0,0,1,18.806,0L18.9,0a2.75,2.75,0,0,1,2.6,2.872V14.944a3,3,0,0,1-2.718,3.045,15.24,15.24,0,0,0-2.84.417,16.143,16.143,0,0,0-3.211,1.478A3.983,3.983,0,0,1,10.75,20.416ZM2.62,1.674A1.187,1.187,0,0,0,1.5,2.941v12a1.425,1.425,0,0,0,1.311,1.433,15.854,15.854,0,0,1,3.13.468,16.693,16.693,0,0,1,3.533,1.614,2.557,2.557,0,0,0,.525.229V3.993a3.965,3.965,0,0,1-1.319-.47A15.947,15.947,0,0,0,5.558,2.1a15.279,15.279,0,0,0-2.872-.419Zm16.275-.06h-.036a13.968,13.968,0,0,0-3.393.473A13.516,13.516,0,0,0,12.8,3.43a4.091,4.091,0,0,1-1.3.528V18.688a2.56,2.56,0,0,0,.525-.229,16.693,16.693,0,0,1,3.533-1.614,15.84,15.84,0,0,1,3.13-.468A1.425,1.425,0,0,0,20,14.944V2.872A1.176,1.176,0,0,0,18.894,1.615ZM13.75,13.444a.762.762,0,0,1-.728-.612.857.857,0,0,1,.085-.611.751.751,0,0,1,.461-.368l4-1.077a.7.7,0,0,1,.183-.024.761.761,0,0,1,.727.612.857.857,0,0,1-.085.611.751.751,0,0,1-.461.368l-4,1.078A.705.705,0,0,1,13.75,13.444Zm-6,0a.7.7,0,0,1-.182-.024l-4-1.078a.751.751,0,0,1-.461-.368.857.857,0,0,1-.085-.611.761.761,0,0,1,.727-.612.7.7,0,0,1,.183.024l4,1.077a.751.751,0,0,1,.461.368.857.857,0,0,1,.085.611A.763.763,0,0,1,7.75,13.444Zm6-4.308h0a.762.762,0,0,1-.727-.612.816.816,0,0,1,.546-.98l4-1.077a.705.705,0,0,1,.182-.024.762.762,0,0,1,.728.611.816.816,0,0,1-.546.98l-4,1.077A.7.7,0,0,1,13.749,9.136Zm-6,0a.7.7,0,0,1-.183-.024l-4-1.077a.816.816,0,0,1-.546-.98.762.762,0,0,1,.728-.611.705.705,0,0,1,.182.024l4,1.077a.816.816,0,0,1,.546.98A.762.762,0,0,1,7.751,9.136Z" transform="translate(1.25 2.441)" fill="#725dff"/>
      </g>
    </g>
  </g>
</svg>
