<svg id="Logo" xmlns="http://www.w3.org/2000/svg" width="37.156" height="45.697" viewBox="0 0 37.156 45.697">
  <path id="路径" d="M0,4.371A4.371,4.371,0,0,1,4.371,0H28.412a4.371,4.371,0,0,1,4.371,4.371V45.678H4.371A4.371,4.371,0,0,1,0,41.307Z" fill="#725dff"/>
  <path id="路径-2" data-name="路径" d="M0,4.371A4.371,4.371,0,0,1,4.371,0H28.412a4.371,4.371,0,0,1,4.371,4.371V45.678H4.371A4.371,4.371,0,0,1,0,41.307Z" fill="#725dff"/>
  <path id="路径-3" data-name="路径" d="M0,2.4A2.4,2.4,0,0,1,2.4,0H28.412V4.8H2.4A2.4,2.4,0,0,1,0,2.4Z" transform="translate(5.463 37.636)" fill="#725dff" stroke="#fff" stroke-miterlimit="10" stroke-width="2.186"/>
  <path id="路径-4" data-name="路径" d="M0,36.542H25.68a4.371,4.371,0,0,0,4.371-4.371V0" transform="translate(3.826 8.062)" fill="none" stroke="#fff" stroke-linecap="round" stroke-miterlimit="10" stroke-width="2.186"/>
  <path id="路径-5" data-name="路径" d="M0,36.542H27.866a4.371,4.371,0,0,0,4.371-4.371V0" transform="translate(3.826 8.062)" fill="none" stroke="#725dff" stroke-linecap="round" stroke-miterlimit="10" stroke-width="2.186"/>
</svg>
