<svg id="Outline_Essentional_UI_Pin-2" data-name="Outline / Essentional, UI / Pin" xmlns="http://www.w3.org/2000/svg" xmlns:xlink="http://www.w3.org/1999/xlink" width="20" height="20" viewBox="0 0 20 20">
  <defs>
    <clipPath id="clip-path">
      <rect id="Outline_Essentional_UI_Pin" data-name="Outline / Essentional, UI / Pin" width="20" height="20" fill="none"/>
    </clipPath>
  </defs>
  <rect id="Outline_Essentional_UI_Pin-3" data-name="Outline / Essentional, UI / Pin" width="20" height="20" fill="none"/>
  <g id="Outline_Essentional_UI_Pin-4" data-name="Outline / Essentional, UI / Pin" clip-path="url(#clip-path)">
    <path id="Vector_Stroke_" data-name="Vector (Stroke)" d="M.625,17.917a.625.625,0,0,1-.442-1.066L3.62,13.41,2.34,12.13l-.015-.015a17.14,17.14,0,0,1-1.192-1.267A2.077,2.077,0,0,1,.6,9.592a1.963,1.963,0,0,1,.26-.986,2.08,2.08,0,0,1,1.085-.829,17.248,17.248,0,0,1,1.682-.517l.037-.011A3.424,3.424,0,0,0,4.678,6.9a1.19,1.19,0,0,0,.2-.185,3.466,3.466,0,0,0,.436-.984l.6-1.63.01-.028A21.667,21.667,0,0,1,7.011,1.414,2.369,2.369,0,0,1,8.572.045,1.9,1.9,0,0,1,8.98,0a2.656,2.656,0,0,1,1.583.631A21.836,21.836,0,0,1,12.684,2.6l2.647,2.649.009.009a21.718,21.718,0,0,1,1.948,2.1,2.366,2.366,0,0,1,.584,1.981,2.362,2.362,0,0,1-1.351,1.562,21.561,21.561,0,0,1-2.653,1.112l-1.65.62a3.414,3.414,0,0,0-.976.442,1.138,1.138,0,0,0-.18.2,3.462,3.462,0,0,0-.352,1.013l-.011.038-.012.044a16.86,16.86,0,0,1-.508,1.65,2.067,2.067,0,0,1-.835,1.09,1.952,1.952,0,0,1-.967.257,2.07,2.07,0,0,1-1.265-.536,16.966,16.966,0,0,1-1.284-1.212L4.5,14.295,1.067,17.734A.622.622,0,0,1,.625,17.917ZM8.976,1.25a.622.622,0,0,0-.136.015c-.183.04-.413.161-.732.746A21.755,21.755,0,0,0,7.068,4.579l-.579,1.58c-.012.031-.023.06-.033.09l0,.005A4.043,4.043,0,0,1,5.83,7.523a2.4,2.4,0,0,1-.422.389,4.039,4.039,0,0,1-1.32.518l-.04.011L4,8.456c-.757.209-1.239.344-1.585.482a1,1,0,0,0-.468.293.7.7,0,0,0-.094.354,1,1,0,0,0,.263.486c.238.3.616.679,1.14,1.2l3.431,3.434c.557.558.914.912,1.21,1.148a.992.992,0,0,0,.488.264.7.7,0,0,0,.347-.092,1,1,0,0,0,.294-.471c.144-.358.287-.878.485-1.6l.011-.04.015-.053a4.048,4.048,0,0,1,.516-1.319,2.423,2.423,0,0,1,.377-.413,4.011,4.011,0,0,1,1.256-.63l.01,0,.065-.024.025-.01,1.6-.6a21.809,21.809,0,0,0,2.538-1.055c.578-.321.7-.551.736-.733s.027-.442-.367-.973A21.382,21.382,0,0,0,14.409,6.1L11.84,3.525A21.629,21.629,0,0,0,9.817,1.634,1.537,1.537,0,0,0,8.976,1.25Z" transform="translate(1.042 1.042)" fill="#bdc1c6"/>
  </g>
</svg>
